<?xml version="1.0" encoding="UTF-8" standalone="no"?>
<!-- Generator: Adobe Illustrator 16.0.0, SVG Export Plug-In . SVG Version: 6.00 Build 0)  -->
<svg id="Layer_1" xmlns:rdf="http://www.w3.org/1999/02/22-rdf-syntax-ns#" xmlns="http://www.w3.org/2000/svg" enable-background="new 0 0 1482.927 604.878" xml:space="preserve" height="338.5" viewBox="0 0 1022 338.50001" width="1022" version="1.1" y="0px" x="0px" xmlns:cc="http://creativecommons.org/ns#" xmlns:dc="http://purl.org/dc/elements/1.1/"><metadata id="metadata53"><rdf:RDF><cc:Work rdf:about=""><dc:format>image/svg+xml</dc:format><dc:type rdf:resource="http://purl.org/dc/dcmitype/StillImage"/><dc:title/></cc:Work></rdf:RDF></metadata><g id="g3" transform="translate(-201.51 -152.25)"><g id="g5"><path id="path7" d="m447.73 446.78c-4.857-0.01-20.632 0.602-42.275-1.282-18.077-1.572-31.898-4.767-36.586-5.568-82.427-14.321-124.22-54.424-124.22-54.424 27.883 53.423 76.878 81.426 119.86 95.968 10.707 3.616 19.681 6.991 43.268 8.253 16.064 0.861 40.873-2.555 61.995-8.223 37.338-10.006 77.771-28.984 108.74-64.469 0.001 0-49.295 29.976-130.78 29.745zm104.14-16.696 0.771 1.303-5.198 2.523-0.852-1.772 5.279-2.054zm-10.797 3.676 0.651 1.924-6.55 2.514-0.602-2.144 6.501-2.294zm-7.552 5.539 7.522-2.434c1.081-0.4 2.443 0.04 3.054 1.002l0.893 1.652c0.61 0.961 0.26 2.113-0.802 2.564l-6.591 3.745c-1.041 0.45-2.423-0.01-3.074-1.042l-1.763-2.863c-0.651-1.041-0.32-2.203 0.761-2.624zm-18.157 2.213 0.871 2.113-6.98 2.145-0.821-2.975 6.93-1.283zm-12.59 2.194 0.722 3.054-4.708 1.063-0.991-3.245 4.977-0.872zm-10.315 2.013 0.721 3.055-4.978 0.841-0.431-3.104 4.688-0.792zm-32.871 3.435 0.21 3.795-5.327 0.291-0.15-3.846 5.267-0.24zm-16.886 0.37 5.658-0.13 0.08 4.076-5.738 0.18v-4.126zm-22.706-0.671 5.77 0.271-0.311 4.507-5.759-0.28 0.3-4.498zm-11.537 0.581 0.351-1.822 5.499 0.611-0.301 4.547-5.449-0.551 0.021-0.181-0.301-0.02 0.18-2.584zm-11.638-2.784 5.759 0.44-0.882 4.547-5.759-0.491 0.882-4.496zm-11.387-1.262 5.669 0.802-0.861 4.446-5.689-0.811 0.881-4.437zm-11.708-1.853 5.548 0.981-0.871 4.067-5.608-1.032 0.931-4.016zm-10.437-2.123 5.509 1.192-1.071 4.025-5.559-1.252 1.121-3.965zm-10.887-2.344 5.088 1.242-1.131 3.726-5.139-1.292 1.182-3.676zm-11.016-2.974 4.717 1.332-1.231 3.456-4.768-1.383 1.282-3.405zm-29.706-10.407 4.627 1.793-1.793 2.975-4.326-1.923 1.492-2.845zm-11.729-4.486 6.44 2.554-1.563 2.744-6.27-3.396 1.393-1.902zm-11.878-5.978 6.29 3.113-1.743 2.174-5.909-3.485 1.362-1.802zm-11.197-6.401 5.749 3.455-1.142 1.982-5.739-3.686 1.132-1.751zm-18.098-11.618 4.306 3.104-1.131 1.392-4.297-3.265 1.122-1.231zm-4.977-1.903-7.382-7.391 6.17 7.892-0.981 0.741-5.188-8.633 8.133 6.479-0.752 0.912zm3.335 9.344-2.494-3.646 1.593-1.341 2.725 3.615-1.824 1.372zm7.161 8.724-3.445-3.916 1.913-2.014 3.405 4.146-1.873 1.784zm2.994-10.146 4.617 2.975-1.292 1.583-4.417-3.425 1.092-1.133zm4.046 18.519-3.775-4.307 1.753-1.903 4.086 4.236-2.064 1.974zm8.293 8.282-4.356-3.905 1.763-2.454 4.367 4.186-1.774 2.173zm3.245-11.688-2.453 2.475c-0.892 0.881-2.374 1.082-3.275 0.44l-5.459-4.888c-0.911-0.641-0.971-1.822-0.119-2.644l1.302-1.462c0.852-0.822 2.283-0.992 3.225-0.392l6.73 3.776c0.931 0.612 0.96 1.814 0.049 2.695zm5.769 19.671-4.367-3.886 1.482-2.063 4.647 3.796-1.762 2.153zm8.083 6.4-4.297-3.056 1.793-2.543 4.276 3.225-1.772 2.374zm8.062 5.628-4.156-2.684 1.572-2.604 4.017 2.653-1.433 2.635zm8.503 5.409-4.217-2.284 1.072-3.375 4.236 2.264-1.091 3.395zm-2.924-7.943-13.311-8.332c-2.134-1.032-2.745-3.436-1.383-5.398l2.044-3.375c1.382-1.963 4.256-2.774 6.459-1.823l15.414 5.648c2.174 0.951 2.755 3.426 1.292 5.509l-3.986 5.829c-1.461 2.102-4.386 2.964-6.529 1.942zm11.107 12.87-4.216-2.283 1.081-3.375 4.217 2.273-1.082 3.385zm2.904-26.189-4.646-1.753 1.482-2.845 4.366 1.643-1.202 2.955zm5.96 30.796-4.237-2.264 1.042-3.385 4.257 2.254-1.062 3.395zm-0.852-29.014 1.282-3.205 4.437 1.353-1.272 3.245-4.447-1.393zm9.665 33.472-4.277-2.233 1.021-3.386 4.268 2.204-1.012 3.415zm9.534 3.916-4.507-1.772 0.671-3.445 4.527 1.683-0.691 3.534zm9.335 3.675-4.427-1.793 0.901-3.405 4.457 1.743-0.931 3.455zm10.356 3.795-4.967-1.711 0.73-3.777 5.028 1.402-0.791 4.086zm-5.238-9.664-21.442-8.584c-3.336-0.931-4.978-4.187-3.687-7.261l1.783-5.238c1.292-3.074 5.088-4.907 8.473-4.096l23.537 4.326c3.375 0.821 4.997 4.156 3.605 7.452l-3.726 9.153c-1.372 3.277-5.198 5.19-8.543 4.248zm16.175 13.441-5.469-1.883 0.812-4.157 5.538 1.543-0.881 4.497zm10.807 2.284-5.569-1.422 0.912-4.628 5.538 1.552-0.881 4.498zm13.22 1.14-6.76-0.43 0.811-4.187 6.541 0.54-0.592 4.077zm6.03 0.663 0.13-4.777 5.969-0.241 0.12 4.697-6.219 0.321zm11.066-23.617-1.292 7.741c-0.341 4.438-3.135 7.672-6.26 7.241l-19.561-1.622c-3.114-0.441-5.388-4.137-5.088-8.273l0.602-8.012c0.32-4.127 3.095-7.251 6.229-6.991l20.281 1.422c3.136 0.271 5.41 4.086 5.089 8.494zm6.801 21.923-5.84 0.812 0.301-4.558 5.81-0.471-0.271 4.217zm4.738-37.558 5.679 0.081-0.141 4.086-5.729-0.04 0.191-4.127zm6.549 36.326-5.298 0.742 0.27-4.127 5.278-0.43-0.25 3.815zm5.829-0.64-0.03-3.536 4.787-0.871 0.021 3.496-4.778 0.911zm14.894-2.725-4.849 0.881 0.241-3.565 4.837-0.801-0.229 3.485zm5.468-1.151-0.12-3.516 4.737-1.353 0.11 3.485-4.727 1.384zm-0.721-7.172-23.146 4.377c-3.495 0.29-6.729-2.293-7.23-5.759l-1.282-9.625c-0.501-3.476 1.933-6.419 5.448-6.579l24.058 0.17c3.516-0.15 6.75 2.333 7.221 5.588l0.391 5.438c0.469 3.246-1.975 6.11-5.46 6.39zm2.493-21.743-0.311-3.606 4.948-0.42 0.351 3.565-4.988 0.461zm7.973 26.22-0.16-3.516 4.717-1.392 0.16 3.485-4.717 1.423zm3.586-27.622-0.4-3.405 4.676-0.5 0.441 3.375-4.717 0.53zm6.239 24.788-0.2-3.516 4.707-1.422 0.19 3.485-4.697 1.453zm9.254-3.285-0.19-3.506 4.718-1.422 0.181 3.485-4.709 1.443zm-0.971-10.316-2.395-6.431c-0.881-2.313 0.311-4.616 2.694-5.127l16.485-2.645c2.384-0.511 4.979 0.832 5.829 3.005l1.122 3.676c0.841 2.163-0.391 4.396-2.734 4.987l-15.134 5.648c-2.352 0.603-4.986-0.79-5.867-3.113zm10.657 6.62-0.722-2.824 4.617-1.843 0.842 2.834-4.737 1.833zm9.324-3.975-1.132-2.645 5.018-2.354 1.082 2.824-4.968 2.175zm9.524-4.728-1.162-2.434 5.499-2.845 0.932 2.294-5.269 2.985zm0.631-17.808-1.132-2.453 6.931-1.873 0.852 2.014-6.651 2.312zm10.227 11.688-1.183-2.434 5.349-3.266 1.081 2.725-5.247 2.975zm10.214-6.519-1.502-2.304 5.067-3.365 1.242 2.174-4.807 3.495zm9.025-6.851-1.353-2.094 4.367-3.395 1.361 2.323-4.375 3.166zm4.547-12.52 5.018-2.213 0.761 1.402-5.037 2.393-0.742-1.582zm4.687 5.359-1.422-1.683 3.595-3.025 1.202 1.613-3.375 3.095zm7.472-6.881-0.762-0.901 8.063-6.561-9.094 5.84-0.521-1.021 9.615-4.818-7.301 7.461z"/><g id="g9"><g id="g11"><path id="path13" d="m232.85 345.65c0-39.911 32.34-72.271 72.272-72.271 39.911 0 72.261 32.36 72.261 72.271 0 39.912-32.35 72.281-72.261 72.281-39.933 0-72.272-32.369-72.272-72.281z"/><path id="path15" fill="#8d9092" d="m305.12 242.67c-56.878 0-102.98 46.111-102.98 102.98 0 56.867 46.102 102.97 102.98 102.97 56.857 0 102.97-46.102 102.97-102.97s-46.112-102.98-102.97-102.98zm-84.431 83.8c0-14.482 11.728-26.23 26.221-26.23 14.482 0 26.23 11.748 26.23 26.23 0 14.472-11.748 26.21-26.23 26.21-14.493 0-26.221-11.738-26.221-26.21zm48.616 92.732c-14.493 0-26.231-11.738-26.231-26.22s11.738-26.221 26.231-26.221c14.472 0 26.22 11.738 26.22 26.221-0.001 14.482-11.749 26.22-26.22 26.22zm9.594-136.87c0-14.481 11.718-26.22 26.221-26.22 14.472 0 26.22 11.738 26.22 26.22s-11.748 26.231-26.22 26.231c-14.503 0.001-26.221-11.748-26.221-26.231zm63.308 139.43c-14.482 0-26.221-11.738-26.221-26.221 0-14.473 11.738-26.221 26.221-26.221s26.23 11.748 26.23 26.221c0 14.483-11.748 26.221-26.23 26.221zm21.753-70.349c-14.481 0-26.23-11.748-26.23-26.22 0-14.493 11.749-26.222 26.23-26.222 14.482 0 26.221 11.729 26.221 26.222 0 14.472-11.739 26.22-26.221 26.22z"/><path id="path17" fill="#636466" d="m320.46 345.65c0-8.473-6.87-15.344-15.343-15.344-8.483 0-15.354 6.871-15.354 15.344 0 8.482 6.871 15.354 15.354 15.354 8.473-0.001 15.343-6.872 15.343-15.354z"/></g></g></g><g id="g19"><g id="g21"><g id="g23"><g id="g25"><path id="path27" d="m864.94 413.91c-21.794 0-48.835-11.749-48.835-55.967 0-44.238 27.041-55.767 48.835-55.767 15.093 0 26.411 4.608 36.056 14.673l-18.448 18.45c-5.659-6.079-10.477-8.594-17.607-8.594-6.49 0-11.527 2.304-15.504 7.131-4.196 5.238-6.09 12.569-6.09 24.107 0 11.527 1.894 19.069 6.09 24.308 3.977 4.827 9.014 7.131 15.504 7.131 7.131 0 11.948-2.514 17.607-8.594l18.448 18.238c-9.645 10.057-20.963 14.884-36.056 14.884z"/><path id="path29" d="m952.99 412.65c-22.435 0-31.869-15.725-31.869-31.229v-118.02h27.252v116.34c0 6.5 2.724 9.856 9.645 9.856h10.486v23.056h-15.514z"/><path id="path31" d="m1053.2 412.65v-10.065c-7.132 7.552-17.187 11.327-27.263 11.327-10.896 0-19.7-3.565-25.779-9.646-8.804-8.804-11.107-19.079-11.107-31.028v-69.797h27.252v66.031c0 14.874 9.435 19.911 18.027 19.911 8.594 0 18.238-5.037 18.238-19.911v-66.031h27.252v109.21h-26.62z"/><path id="path33" d="m1190.7 404.06c-6.089 6.08-15.935 9.855-26.631 9.855-11.528 0-19.701-3.146-27.253-11.528v10.267h-26.41v-149.25h27.252v49.676c7.131-7.963 15.304-10.897 26.411-10.897 10.696 0 20.542 3.776 26.631 9.856 10.896 10.896 11.097 29.555 11.097 45.91 0 16.344-0.201 35.214-11.097 46.111zm-34.594-77.35c-16.354 0-18.448 13.411-18.448 31.238 0 17.817 2.094 31.438 18.448 31.438 16.355 0 18.448-13.621 18.448-31.438 0-17.827-2.092-31.238-18.448-31.238z"/></g><g id="g35" fill="#ed1c24"><path id="path37" d="m475.13 413.91c-21.794 0-48.846-11.749-48.846-55.967 0-44.238 27.052-55.767 48.846-55.767 15.094 0 26.411 4.608 36.056 14.673l-18.449 18.45c-5.659-6.079-10.486-8.594-17.607-8.594-6.5 0-11.527 2.304-15.514 7.131-4.196 5.238-6.079 12.569-6.079 24.107 0 11.527 1.883 19.069 6.079 24.308 3.986 4.827 9.014 7.131 15.514 7.131 7.121 0 11.948-2.514 17.607-8.594l18.448 18.238c-9.644 10.057-20.961 14.884-36.055 14.884z"/><path id="path39" d="m532.36 412.65v-109.21h27.263v109.21h-27.263z"/><path id="path41" d="m653.52 412.65v-66.022c0-14.883-9.425-19.921-18.019-19.921-8.593 0-18.238 5.038-18.238 19.921v66.022h-27.262v-109.21h26.631v10.065c7.121-7.552 17.187-11.328 27.253-11.328 10.896 0 19.7 3.566 25.779 9.646 8.804 8.804 11.107 19.079 11.107 31.027v69.799h-27.251z"/><path id="path43" d="m731.51 366.54c0 14.042 8.583 24.309 23.896 24.309 11.948 0 17.808-3.346 24.729-10.267l16.565 16.145c-11.107 11.098-21.804 17.188-41.504 17.188-25.79 0-50.519-11.749-50.519-55.967 0-35.645 19.29-55.767 47.584-55.767 30.396 0 47.583 22.225 47.583 52.201v12.158h-68.334zm38.979-30.396c-2.935-6.5-9.003-11.317-18.228-11.317s-15.304 4.817-18.238 11.317c-1.683 3.977-2.304 6.921-2.514 11.738h41.504c-0.21-4.817-0.84-7.762-2.524-11.738z"/></g></g></g><path id="path45" fill="#ed1c24" d="m562.83 280.23c0 9.304-7.531 16.836-16.836 16.836-9.294 0-16.836-7.532-16.836-16.836 0-9.294 7.542-16.835 16.836-16.835 9.305 0 16.836 7.541 16.836 16.835z"/></g><path id="path47" d="m933.78 252.41s119.72-73.553 291.25-7.491l1.111-87.596c0.001 0-179.59-35.264-292.36 95.087zm267.25-95.557 7.622 0.991-0.932 7.081-7.662-0.641 0.972-7.431zm-13.711-0.921 7.731 0.13-0.961 7.322-7.723-0.15 0.953-7.302zm-14.343-0.322 7.682 0.511-0.941 7.182-7.741-0.06 1-7.633zm-14.863 0.212 7.742 0.029-0.922 7.07-7.771 0.171 0.951-7.27zm-44.668 4.537 6.46-0.963-0.371 5.519-6.479 0.893 0.39-5.449zm-13.662 1.813 6.541-0.901-0.722 5.548-6.53 0.771 0.711-5.418zm-13.841 2.954 6.45-1.683-0.25 5.498-6.45 1.643 0.25-5.458zm-39.29 11.026 6.419-1.793-0.16 5.489-6.42 1.763 0.161-5.459zm6.53 14.383 2.434 10.266c0.912 3.706-0.941 7.172-4.156 7.742l-22.225 2.493c-3.225 0.562-6.52-1.782-7.391-5.238l-1.072-5.849c-0.861-3.465 1.022-6.83 4.207-7.521l20.762-7.32c3.185-0.713 6.52 1.721 7.441 5.427zm-13.411-11.377 0.631 4.496-6.33 2.414-0.801-4.508 6.5-2.402zm-12.839 5.298 1.201 4.236-6.94 3.175-1.111-4.508 6.85-2.903zm-89.819 65.05 10.556-10.917 0.901 1.483-11.457 9.434 12.77-8.212 0.551 1.652-13.321 6.56zm16.446-16.405 4.838-4.497 1.691 2.765-5.128 4.356-1.401-2.624zm3.535 7.27-0.861-2.273 6.971-3.234 0.812 2.544-6.922 2.963zm8.232-17.525 6.159-4.518 1.573 3.395-6.22 4.878-1.512-3.755zm5.369 11.817-0.882-2.113 7.191-3.405 0.931 2.854-7.24 2.664zm6.79-21.153 6.79-4.967 1.732 3.735-7.131 4.757-1.391-3.525zm7.972 16.496-0.641-3.064 8.994-3.285 0.541 3.416-8.894 2.933zm10.677-7.912-10.286 3.055c-1.481 0.541-3.234-0.29-3.936-1.853l-1.002-2.664c-0.701-1.563-0.09-3.315 1.362-3.916l9.185-5.208c1.441-0.602 3.225 0.27 3.966 1.942l2.022 4.637c0.741 1.673 0.161 3.466-1.311 4.007zm-3.726-14.233-1.132-4.366 7.331-4.126 1.272 3.916-7.471 4.576zm10.226 16.917-0.901-3.226 9.114-2.944 1.222 3.937-9.435 2.233zm4.717-26.091-0.962-3.666 7.331-4.126 1.272 3.916-7.641 3.876zm13.161 21.735-0.922-3.376 9.535-2.645 0.751 4.697-9.364 1.324zm16.975-2.174-0.601-4.827 6.38-1.202 0.941 5.147-6.72 0.882zm13.943-2.134-0.602-4.827 6.721-0.831 0.2 4.888-6.319 0.77zm7.902-44.167 6.419-1.794-0.149 5.489-6.43 1.763 0.16-5.458zm5.727 43.115-0.2-5.288 6.32-0.37 0.141 5.357-6.261 0.301zm13.882-42.875-6.43 1.713 0.19-5.458 6.43-1.743-0.19 5.488zm7.773 41.844-6.62 0.15-0.07-5.599 6.69-0.221v5.67zm15.824 0.09-7.041-0.12 0.171-5.949 7.12 0.061-0.25 6.008zm15.464 0.941-7.552-0.351 0.37-6.379 7.643 0.29-0.461 6.44zm14.232 1.193-7.532-0.682 0.661-6.359 7.611 0.631-0.74 6.41zm-6.9-11.558-31.96-2.635c-4.697-0.1-8.693-4.306-8.954-9.415l0.11-8.522c-0.25-5.098 3.325-9.324 8.003-9.425l31.248-4.557c4.677-0.109 8.684 4.236 8.953 9.685l0.591 15.134c0.271 5.469-3.314 9.825-7.991 9.735zm8.652-40.552-7.041 0.15 0.771-5.93 7.111-0.631-0.841 6.411zm14.102 54.193-7.621-0.991 0.911-6.991 7.622 0.992-0.912 6.99zm1.493-54.954-7.772 0.16 0.861-6.541 7.832-0.691-0.921 7.072zm13.53 58.049-7.541-1.552 0.921-7.082 7.562 1.483-0.942 7.151zm-7.201-27.362 1.242-13.472c0.631-6.951 6.3-11.968 12.64-11.207l40.563 2.133c6.34 0.741 10.937 7.392 10.246 14.834l-2.134 20.571c-0.681 7.44-6.37 12.64-12.68 11.617l-39.601-10.025c-6.32-1.041-10.917-7.511-10.276-14.451zm22.334 31.278-7.03-1.643 0.981-7.531 7.051 1.552-1.002 7.622zm14.844 5.017-7.963-2.413 1.002-7.682 7.952 2.463-0.991 7.632zm15.344 5.399-7.963-2.574 1.022-7.871 7.952 2.653-1.011 7.792zm12.779 4.818-7.941-2.975 0.991-7.552 7.441 2.313-0.491 8.214zm-0.431-73.955-7.611-1.001 0.921-7.071 7.622 0.991-0.932 7.081z"/></g></svg>
